# xmcd CD database file
#
# Track frame offsets:
#	183
#	23908
#	42160
#	61213
#	78303
#	95988
#	113973
#	128598
#	148825
#	160953
#	175590
#
# Disc length: 2570 seconds
#
# Revision: 6
# Processed by: cddbd v1.5.1PL2 Copyright (c) Steve Scherf et al.
# Submitted via: CDex 1.51
#
DISCID=900a080b
DTITLE=Stéphane Grappelli - I Hear Music
DYEAR=1971
DGENRE=Jazz
TTITLE0=Tea for Two
TTITLE1=Danny Boy
TTITLE2=Let's Fall in Love
TTITLE3=Coltrane
TTITLE4=Dear Ben
TTITLE5=I Hear Music
TTITLE6=Dany
TTITLE7=Smoke Gets in Your Eyes
TTITLE8=Body and Soul
TTITLE9=Gary
TTITLE10=Flower for Kenny
EXTD=YEAR: 1971
EXTT0=
EXTT1=
EXTT2=
EXTT3=
EXTT4=
EXTT5=
EXTT6=
EXTT7=
EXTT8=
EXTT9=
EXTT10=
PLAYORDER=
